<mxfile host="65bd71144e">
    <diagram id="D3pR6UhjDQ2KNcMkojaU" name="main">
        <mxGraphModel dx="1164" dy="377" grid="1" gridSize="10" guides="1" tooltips="1" connect="1" arrows="1" fold="1" page="1" pageScale="1" pageWidth="827" pageHeight="1169" math="0" shadow="0">
            <root>
                <mxCell id="0"/>
                <mxCell id="1" parent="0"/>
                <mxCell id="3z1ptvSLBZPx3WAONqTH-7" value="" style="edgeStyle=orthogonalEdgeStyle;rounded=0;orthogonalLoop=1;jettySize=auto;html=1;fontColor=#000000;" parent="1" source="3z1ptvSLBZPx3WAONqTH-1" target="3z1ptvSLBZPx3WAONqTH-3" edge="1">
                    <mxGeometry relative="1" as="geometry"/>
                </mxCell>
                <mxCell id="3z1ptvSLBZPx3WAONqTH-1" value="Начало" style="ellipse;whiteSpace=wrap;html=1;" parent="1" vertex="1">
                    <mxGeometry x="350" y="20" width="120" height="80" as="geometry"/>
                </mxCell>
                <mxCell id="3z1ptvSLBZPx3WAONqTH-29" style="edgeStyle=orthogonalEdgeStyle;rounded=0;orthogonalLoop=1;jettySize=auto;html=1;entryX=0.5;entryY=0;entryDx=0;entryDy=0;fontColor=#000000;" parent="1" source="3z1ptvSLBZPx3WAONqTH-2" edge="1">
                    <mxGeometry relative="1" as="geometry">
                        <mxPoint x="414" y="360" as="targetPoint"/>
                    </mxGeometry>
                </mxCell>
                <mxCell id="3z1ptvSLBZPx3WAONqTH-2" value="&lt;div style=&quot;font-family: &amp;#34;consolas&amp;#34; , &amp;#34;courier new&amp;#34; , monospace ; font-weight: normal ; font-size: 14px ; line-height: 19px&quot;&gt;&lt;div&gt;CreateRandomArray(FirstPoint, LastPoint, ArrayLength) &lt;br&gt;&lt;/div&gt;&lt;div&gt;Создаем массив из случайных элементов&lt;br&gt;&lt;/div&gt;&lt;div&gt;&lt;span style=&quot;background-color: rgb(255 , 255 , 255)&quot;&gt;&lt;br&gt;&lt;/span&gt;&lt;/div&gt;&lt;/div&gt;" style="rounded=0;whiteSpace=wrap;html=1;strokeColor=#FFFFFF;" parent="1" vertex="1">
                    <mxGeometry x="215" y="250" width="400" height="80" as="geometry"/>
                </mxCell>
                <mxCell id="3z1ptvSLBZPx3WAONqTH-8" value="" style="edgeStyle=orthogonalEdgeStyle;rounded=0;orthogonalLoop=1;jettySize=auto;html=1;fontColor=#000000;" parent="1" source="3z1ptvSLBZPx3WAONqTH-3" target="3z1ptvSLBZPx3WAONqTH-2" edge="1">
                    <mxGeometry relative="1" as="geometry"/>
                </mxCell>
                <mxCell id="3z1ptvSLBZPx3WAONqTH-3" value="&lt;div&gt;ArrayLength&lt;br&gt;&lt;/div&gt;&lt;div&gt;FirstPoint&lt;/div&gt;&lt;div&gt;LastPoint&lt;/div&gt;&lt;div&gt;&lt;br&gt;&lt;/div&gt;&lt;div&gt;Задаем значение переменным&lt;br&gt;&lt;/div&gt;" style="shape=parallelogram;perimeter=parallelogramPerimeter;whiteSpace=wrap;html=1;fixedSize=1;" parent="1" vertex="1">
                    <mxGeometry x="270" y="120" width="290" height="80" as="geometry"/>
                </mxCell>
                <mxCell id="3z1ptvSLBZPx3WAONqTH-5" value="Конец" style="ellipse;whiteSpace=wrap;html=1;strokeColor=#FFFFFF;" parent="1" vertex="1">
                    <mxGeometry x="360" y="1120" width="120" height="80" as="geometry"/>
                </mxCell>
                <mxCell id="3z1ptvSLBZPx3WAONqTH-30" value="" style="edgeStyle=orthogonalEdgeStyle;rounded=0;orthogonalLoop=1;jettySize=auto;html=1;fontColor=#000000;entryX=0.5;entryY=0;entryDx=0;entryDy=0;" parent="1" edge="1">
                    <mxGeometry relative="1" as="geometry">
                        <mxPoint x="414" y="420" as="sourcePoint"/>
                        <mxPoint x="414" y="440" as="targetPoint"/>
                    </mxGeometry>
                </mxCell>
                <mxCell id="3z1ptvSLBZPx3WAONqTH-14" value="" style="edgeStyle=orthogonalEdgeStyle;rounded=0;orthogonalLoop=1;jettySize=auto;html=1;fontColor=#000000;" parent="1" source="3z1ptvSLBZPx3WAONqTH-11" target="3z1ptvSLBZPx3WAONqTH-13" edge="1">
                    <mxGeometry relative="1" as="geometry">
                        <Array as="points">
                            <mxPoint x="415" y="630"/>
                        </Array>
                    </mxGeometry>
                </mxCell>
                <mxCell id="3z1ptvSLBZPx3WAONqTH-18" value="" style="edgeStyle=orthogonalEdgeStyle;rounded=0;orthogonalLoop=1;jettySize=auto;html=1;fontColor=#000000;" parent="1" source="3z1ptvSLBZPx3WAONqTH-11" target="3z1ptvSLBZPx3WAONqTH-12" edge="1">
                    <mxGeometry relative="1" as="geometry"/>
                </mxCell>
                <mxCell id="3z1ptvSLBZPx3WAONqTH-11" value="&lt;font color=&quot;#ffffff&quot;&gt;&lt;span style=&quot;font-family: &amp;#34;helvetica&amp;#34; ; font-size: 12px ; font-style: normal ; font-weight: 400 ; letter-spacing: normal ; text-align: center ; text-indent: 0px ; text-transform: none ; word-spacing: 0px ; display: inline ; float: none&quot;&gt;array[i] % 2 = 0&lt;/span&gt;&lt;br&gt;&lt;/font&gt;" style="rhombus;whiteSpace=wrap;html=1;labelBackgroundColor=none;fontColor=#000000;align=center;strokeColor=#FFFFFF;" parent="1" vertex="1">
                    <mxGeometry x="320" y="500" width="190" height="80" as="geometry"/>
                </mxCell>
                <mxCell id="3z1ptvSLBZPx3WAONqTH-25" style="edgeStyle=orthogonalEdgeStyle;rounded=0;orthogonalLoop=1;jettySize=auto;html=1;entryX=0;entryY=0.5;entryDx=0;entryDy=0;fontColor=#000000;" parent="1" source="3z1ptvSLBZPx3WAONqTH-12" edge="1">
                    <mxGeometry relative="1" as="geometry">
                        <Array as="points">
                            <mxPoint x="189" y="460"/>
                        </Array>
                        <mxPoint x="334" y="460" as="targetPoint"/>
                    </mxGeometry>
                </mxCell>
                <mxCell id="3z1ptvSLBZPx3WAONqTH-12" value="&lt;font color=&quot;#ffffff&quot;&gt;i++&lt;/font&gt;" style="rounded=0;whiteSpace=wrap;html=1;labelBackgroundColor=none;fontColor=#000000;fillColor=#000000;strokeColor=#FFFFFF;" parent="1" vertex="1">
                    <mxGeometry x="129" y="510" width="120" height="60" as="geometry"/>
                </mxCell>
                <mxCell id="3z1ptvSLBZPx3WAONqTH-27" value="" style="edgeStyle=orthogonalEdgeStyle;rounded=0;orthogonalLoop=1;jettySize=auto;html=1;fontColor=#000000;" parent="1" source="3z1ptvSLBZPx3WAONqTH-13" target="3z1ptvSLBZPx3WAONqTH-12" edge="1">
                    <mxGeometry relative="1" as="geometry"/>
                </mxCell>
                <mxCell id="3z1ptvSLBZPx3WAONqTH-13" value="&lt;div&gt;&lt;font color=&quot;#ffffff&quot;&gt;count ++&lt;/font&gt;&lt;/div&gt;" style="rounded=0;whiteSpace=wrap;html=1;labelBackgroundColor=none;fontColor=#000000;strokeColor=#FFFFFF;" parent="1" vertex="1">
                    <mxGeometry x="129" y="600" width="120" height="60" as="geometry"/>
                </mxCell>
                <mxCell id="3z1ptvSLBZPx3WAONqTH-15" value="да" style="text;html=1;strokeColor=none;fillColor=none;align=center;verticalAlign=middle;whiteSpace=wrap;rounded=0;labelBackgroundColor=#FFFFFF;fontColor=#000000;" parent="1" vertex="1">
                    <mxGeometry x="305" y="600" width="60" height="30" as="geometry"/>
                </mxCell>
                <mxCell id="3z1ptvSLBZPx3WAONqTH-19" value="нет" style="text;html=1;strokeColor=none;fillColor=none;align=center;verticalAlign=middle;whiteSpace=wrap;rounded=0;labelBackgroundColor=#FFFFFF;fontColor=#000000;" parent="1" vertex="1">
                    <mxGeometry x="260" y="500" width="60" height="30" as="geometry"/>
                </mxCell>
                <mxCell id="3z1ptvSLBZPx3WAONqTH-22" value="" style="edgeStyle=orthogonalEdgeStyle;rounded=0;orthogonalLoop=1;jettySize=auto;html=1;fontColor=#000000;" parent="1" target="3z1ptvSLBZPx3WAONqTH-11" edge="1">
                    <mxGeometry relative="1" as="geometry">
                        <mxPoint x="414" y="480" as="sourcePoint"/>
                    </mxGeometry>
                </mxCell>
                <mxCell id="3z1ptvSLBZPx3WAONqTH-24" style="edgeStyle=orthogonalEdgeStyle;rounded=0;orthogonalLoop=1;jettySize=auto;html=1;fontColor=#000000;entryX=1;entryY=0.5;entryDx=0;entryDy=0;" parent="1" target="3z1ptvSLBZPx3WAONqTH-31" edge="1">
                    <mxGeometry relative="1" as="geometry">
                        <Array as="points">
                            <mxPoint x="760" y="460"/>
                            <mxPoint x="760" y="690"/>
                        </Array>
                        <mxPoint x="494" y="460" as="sourcePoint"/>
                    </mxGeometry>
                </mxCell>
                <mxCell id="3z1ptvSLBZPx3WAONqTH-23" value="да" style="text;html=1;strokeColor=none;fillColor=none;align=center;verticalAlign=middle;whiteSpace=wrap;rounded=0;labelBackgroundColor=#FFFFFF;fontColor=#000000;" parent="1" vertex="1">
                    <mxGeometry x="400" y="470" width="60" height="30" as="geometry"/>
                </mxCell>
                <mxCell id="3z1ptvSLBZPx3WAONqTH-33" style="edgeStyle=orthogonalEdgeStyle;rounded=0;orthogonalLoop=1;jettySize=auto;html=1;entryX=0.5;entryY=0;entryDx=0;entryDy=0;fontColor=#000000;" parent="1" source="3z1ptvSLBZPx3WAONqTH-31" target="3z1ptvSLBZPx3WAONqTH-32" edge="1">
                    <mxGeometry relative="1" as="geometry"/>
                </mxCell>
                <mxCell id="3z1ptvSLBZPx3WAONqTH-31" value="&lt;div&gt;&lt;font color=&quot;#ffffff&quot;&gt;EvenArray[count]&lt;/font&gt;&lt;/div&gt;&lt;div&gt;&lt;font color=&quot;#ffffff&quot;&gt;Создаем массив длинной count&lt;/font&gt;&lt;/div&gt;&lt;div&gt;&lt;font color=&quot;#ffffff&quot;&gt;index = 0&lt;/font&gt;&lt;/div&gt;&lt;div&gt;&lt;font color=&quot;#ffffff&quot;&gt;i = 0&lt;/font&gt;&lt;br&gt;&lt;/div&gt;" style="rounded=0;whiteSpace=wrap;html=1;labelBackgroundColor=none;fontColor=#000000;strokeColor=#FFFFFF;" parent="1" vertex="1">
                    <mxGeometry x="330" y="650" width="180" height="80" as="geometry"/>
                </mxCell>
                <mxCell id="3z1ptvSLBZPx3WAONqTH-35" style="edgeStyle=orthogonalEdgeStyle;rounded=0;orthogonalLoop=1;jettySize=auto;html=1;entryX=0.5;entryY=0;entryDx=0;entryDy=0;fontColor=#000000;" parent="1" source="3z1ptvSLBZPx3WAONqTH-32" target="3z1ptvSLBZPx3WAONqTH-34" edge="1">
                    <mxGeometry relative="1" as="geometry"/>
                </mxCell>
                <mxCell id="3z1ptvSLBZPx3WAONqTH-50" style="edgeStyle=orthogonalEdgeStyle;rounded=0;orthogonalLoop=1;jettySize=auto;html=1;entryX=1;entryY=0.5;entryDx=0;entryDy=0;fontColor=#000000;" parent="1" source="3z1ptvSLBZPx3WAONqTH-32" target="3z1ptvSLBZPx3WAONqTH-39" edge="1">
                    <mxGeometry relative="1" as="geometry">
                        <Array as="points">
                            <mxPoint x="580" y="770"/>
                            <mxPoint x="580" y="1070"/>
                        </Array>
                    </mxGeometry>
                </mxCell>
                <mxCell id="3z1ptvSLBZPx3WAONqTH-32" value="&lt;font color=&quot;#ffffff&quot;&gt;i &amp;lt; array.length&lt;/font&gt;" style="rhombus;whiteSpace=wrap;html=1;labelBackgroundColor=none;fontColor=#000000;strokeColor=#FFFFFF;" parent="1" vertex="1">
                    <mxGeometry x="340" y="750" width="160" height="40" as="geometry"/>
                </mxCell>
                <mxCell id="3z1ptvSLBZPx3WAONqTH-46" style="edgeStyle=orthogonalEdgeStyle;rounded=0;orthogonalLoop=1;jettySize=auto;html=1;entryX=1;entryY=0.5;entryDx=0;entryDy=0;fontColor=#000000;" parent="1" source="3z1ptvSLBZPx3WAONqTH-34" target="3z1ptvSLBZPx3WAONqTH-41" edge="1">
                    <mxGeometry relative="1" as="geometry">
                        <Array as="points">
                            <mxPoint x="420" y="940"/>
                        </Array>
                    </mxGeometry>
                </mxCell>
                <mxCell id="3z1ptvSLBZPx3WAONqTH-48" style="edgeStyle=orthogonalEdgeStyle;rounded=0;orthogonalLoop=1;jettySize=auto;html=1;fontColor=#000000;" parent="1" source="3z1ptvSLBZPx3WAONqTH-34" target="3z1ptvSLBZPx3WAONqTH-43" edge="1">
                    <mxGeometry relative="1" as="geometry"/>
                </mxCell>
                <mxCell id="3z1ptvSLBZPx3WAONqTH-34" value="&lt;font color=&quot;#ffffff&quot;&gt;array[i] % 2 = 0&lt;/font&gt;" style="rhombus;whiteSpace=wrap;html=1;labelBackgroundColor=none;fontColor=#000000;strokeColor=#FFFFFF;" parent="1" vertex="1">
                    <mxGeometry x="325" y="810" width="190" height="80" as="geometry"/>
                </mxCell>
                <mxCell id="3z1ptvSLBZPx3WAONqTH-36" value="да" style="text;html=1;strokeColor=none;fillColor=none;align=center;verticalAlign=middle;whiteSpace=wrap;rounded=0;labelBackgroundColor=#FFFFFF;fontColor=#000000;" parent="1" vertex="1">
                    <mxGeometry x="414" y="780" width="60" height="30" as="geometry"/>
                </mxCell>
                <mxCell id="3z1ptvSLBZPx3WAONqTH-38" value="нет" style="text;html=1;strokeColor=none;fillColor=none;align=center;verticalAlign=middle;whiteSpace=wrap;rounded=0;labelBackgroundColor=#FFFFFF;fontColor=#000000;" parent="1" vertex="1">
                    <mxGeometry x="600" y="430" width="60" height="30" as="geometry"/>
                </mxCell>
                <mxCell id="3z1ptvSLBZPx3WAONqTH-40" value="" style="edgeStyle=orthogonalEdgeStyle;rounded=0;orthogonalLoop=1;jettySize=auto;html=1;fontColor=#000000;" parent="1" source="3z1ptvSLBZPx3WAONqTH-39" target="3z1ptvSLBZPx3WAONqTH-5" edge="1">
                    <mxGeometry relative="1" as="geometry"/>
                </mxCell>
                <mxCell id="3z1ptvSLBZPx3WAONqTH-39" value="&lt;font&gt;Print Array&lt;br&gt;Выводим массив в консоль&lt;br&gt;&lt;/font&gt;" style="rounded=0;whiteSpace=wrap;html=1;labelBackgroundColor=none;strokeColor=#FFFFFF;" parent="1" vertex="1">
                    <mxGeometry x="360" y="1040" width="120" height="60" as="geometry"/>
                </mxCell>
                <mxCell id="3z1ptvSLBZPx3WAONqTH-44" style="edgeStyle=orthogonalEdgeStyle;rounded=0;orthogonalLoop=1;jettySize=auto;html=1;entryX=0.5;entryY=1;entryDx=0;entryDy=0;fontColor=#000000;" parent="1" source="3z1ptvSLBZPx3WAONqTH-41" target="3z1ptvSLBZPx3WAONqTH-43" edge="1">
                    <mxGeometry relative="1" as="geometry"/>
                </mxCell>
                <mxCell id="3z1ptvSLBZPx3WAONqTH-41" value="&lt;div&gt;&lt;font color=&quot;#ffffff&quot;&gt;EvenArray[index] = array[i]&lt;/font&gt;&lt;/div&gt;&lt;div&gt;&lt;font color=&quot;#ffffff&quot;&gt;index++&lt;/font&gt;&lt;/div&gt;" style="rounded=0;whiteSpace=wrap;html=1;labelBackgroundColor=none;fontColor=#000000;strokeColor=#FFFFFF;" parent="1" vertex="1">
                    <mxGeometry x="84" y="910" width="210" height="60" as="geometry"/>
                </mxCell>
                <mxCell id="3z1ptvSLBZPx3WAONqTH-45" style="edgeStyle=orthogonalEdgeStyle;rounded=0;orthogonalLoop=1;jettySize=auto;html=1;entryX=0;entryY=0.5;entryDx=0;entryDy=0;fontColor=#000000;" parent="1" source="3z1ptvSLBZPx3WAONqTH-43" target="3z1ptvSLBZPx3WAONqTH-32" edge="1">
                    <mxGeometry relative="1" as="geometry">
                        <Array as="points">
                            <mxPoint x="189" y="770"/>
                        </Array>
                    </mxGeometry>
                </mxCell>
                <mxCell id="3z1ptvSLBZPx3WAONqTH-43" value="&lt;font color=&quot;#ffffff&quot;&gt;i++&lt;/font&gt;" style="rounded=0;whiteSpace=wrap;html=1;labelBackgroundColor=none;fontColor=#000000;strokeColor=#FFFFFF;" parent="1" vertex="1">
                    <mxGeometry x="129" y="820" width="120" height="60" as="geometry"/>
                </mxCell>
                <mxCell id="3z1ptvSLBZPx3WAONqTH-47" value="да" style="text;html=1;strokeColor=none;fillColor=none;align=center;verticalAlign=middle;whiteSpace=wrap;rounded=0;labelBackgroundColor=#FFFFFF;fontColor=#000000;" parent="1" vertex="1">
                    <mxGeometry x="330" y="910" width="60" height="30" as="geometry"/>
                </mxCell>
                <mxCell id="3z1ptvSLBZPx3WAONqTH-49" value="нет" style="text;html=1;strokeColor=none;fillColor=none;align=center;verticalAlign=middle;whiteSpace=wrap;rounded=0;labelBackgroundColor=#FFFFFF;fontColor=#000000;" parent="1" vertex="1">
                    <mxGeometry x="260" y="820" width="60" height="30" as="geometry"/>
                </mxCell>
                <mxCell id="3z1ptvSLBZPx3WAONqTH-51" value="нет" style="text;html=1;strokeColor=none;fillColor=none;align=center;verticalAlign=middle;whiteSpace=wrap;rounded=0;labelBackgroundColor=#FFFFFF;fontColor=#000000;" parent="1" vertex="1">
                    <mxGeometry x="510" y="740" width="60" height="30" as="geometry"/>
                </mxCell>
                <mxCell id="dC9fBJkIjHlqVnDLb7Xi-2" value="" style="edgeStyle=none;html=1;" edge="1" parent="1" source="dC9fBJkIjHlqVnDLb7Xi-1" target="3z1ptvSLBZPx3WAONqTH-2">
                    <mxGeometry relative="1" as="geometry">
                        <Array as="points">
                            <mxPoint x="415" y="350"/>
                        </Array>
                    </mxGeometry>
                </mxCell>
                <mxCell id="dC9fBJkIjHlqVnDLb7Xi-1" value="Count = 0&lt;br&gt;i = 0" style="rounded=0;whiteSpace=wrap;html=1;" vertex="1" parent="1">
                    <mxGeometry x="355" y="360" width="120" height="60" as="geometry"/>
                </mxCell>
                <mxCell id="dC9fBJkIjHlqVnDLb7Xi-3" value="i &amp;lt; array.Length" style="rhombus;whiteSpace=wrap;html=1;strokeColor=#FFFFFF;" vertex="1" parent="1">
                    <mxGeometry x="335" y="440" width="165" height="40" as="geometry"/>
                </mxCell>
            </root>
        </mxGraphModel>
    </diagram>
</mxfile>